<svg width="302" height="512" viewBox="0 0 302 512" fill="none" xmlns="http://www.w3.org/2000/svg">
<g clip-path="url(#clip0_257_15)">
<path d="M150.602 0C67.5586 0 0 67.5586 0 150.602V361.398C0 444.441 67.5586 512 150.602 512C233.645 512 301.203 444.441 301.203 361.398V150.602C301.203 67.5586 233.645 0 150.602 0ZM270.484 361.398C270.484 427.5 216.703 481.281 150.602 481.281C84.5 481.281 30.7188 427.5 30.7188 361.398V150.602C30.7188 84.5 84.5 30.7188 150.602 30.7188C216.703 30.7188 270.484 84.5 270.484 150.602V361.398Z" fill="white"/>
<path d="M150.605 101.852C142.121 101.852 135.246 108.727 135.246 117.211V187.906C135.246 196.387 142.121 203.266 150.605 203.266C159.086 203.266 165.965 196.387 165.965 187.906V117.211C165.965 108.727 159.09 101.852 150.605 101.852Z" fill="white"/>
</g>
<defs>
<clipPath id="clip0_257_15">
<rect width="302" height="512" fill="white"/>
</clipPath>
</defs>
</svg>
